<svg width="160" height="159" viewBox="0 0 160 159" fill="none" xmlns="http://www.w3.org/2000/svg">
<path d="M123.393 28.8473V7.14158C123.393 3.19772 120.196 0 116.252 0H47.1034C43.1596 0 39.9618 3.19772 39.9618 7.14158V30.7078C39.9618 34.6517 36.7641 37.8494 32.8203 37.8494H7.14158C3.19772 37.8494 0 41.0471 0 44.991V113.519C0 117.463 3.19772 120.661 7.14158 120.661H31.0567C35.0005 120.661 38.1982 123.858 38.1982 127.802V151.165C38.1982 155.109 41.396 158.307 45.3398 158.307H72.7724C76.7162 158.307 79.914 155.109 79.914 151.165V123.732C79.914 119.789 76.7162 116.591 72.7724 116.591H48.8573C44.9135 116.591 41.7157 113.393 41.7157 109.449V48.8573C41.7157 44.9135 44.9135 41.7157 48.8573 41.7157H111.077C115.021 41.7157 118.219 44.9135 118.219 48.8573V61.6288C118.219 65.5727 115.021 68.7704 111.077 68.7704H74.0999C70.1561 68.7704 66.9584 71.9681 66.9584 75.912V90.8056C66.9584 94.7495 70.1561 97.9472 74.0999 97.9472H118.17C122.114 97.9472 125.312 94.7495 125.312 90.8056V84.8365C125.312 80.8927 128.51 77.6949 132.454 77.6949H152.803C156.747 77.6949 159.944 74.4972 159.944 70.5534V43.1208C159.944 39.1769 156.747 35.9792 152.803 35.9792H130.545C126.601 35.9792 123.403 32.7815 123.403 28.8376L123.393 28.8473Z" fill="#0000EC"/>
</svg>
