<svg width="11" height="10" viewBox="0 0 11 10" fill="none" xmlns="http://www.w3.org/2000/svg">
<path d="M7.79458 1.82197V0.45123C7.7946 0.391967 7.78295 0.333279 7.76028 0.278521C7.73762 0.223764 7.70438 0.17401 7.66247 0.132104C7.62057 0.0901985 7.57081 0.0569622 7.51606 0.034295C7.4613 0.0116277 7.40261 -2.60007e-05 7.34335 4.35573e-08H2.97551C2.91624 -2.60007e-05 2.85755 0.0116277 2.8028 0.034295C2.74804 0.0569622 2.69829 0.0901985 2.65638 0.132104C2.61447 0.17401 2.58124 0.223764 2.55857 0.278521C2.5359 0.333279 2.52425 0.391967 2.52428 0.45123V1.93988C2.52422 2.05951 2.47666 2.17424 2.39204 2.25882C2.30743 2.34339 2.19268 2.39091 2.07304 2.39091H0.451032C0.331393 2.39096 0.216671 2.43852 0.132092 2.52314C0.0475129 2.60776 3.20009e-08 2.7225 4.35386e-08 2.84214V7.17074C-2.59877e-05 7.22999 0.0116211 7.28866 0.0342759 7.34341C0.0569308 7.39815 0.0901493 7.4479 0.132034 7.4898C0.173919 7.5317 0.223649 7.56494 0.278384 7.58762C0.333119 7.6103 0.391785 7.62197 0.451032 7.62197H1.96167C2.02092 7.62197 2.07959 7.63365 2.13432 7.65632C2.18906 7.679 2.23879 7.71224 2.28067 7.75415C2.32256 7.79605 2.35578 7.8458 2.37843 7.90054C2.40109 7.95529 2.41273 8.01396 2.41271 8.0732V9.54877C2.41271 9.66844 2.46025 9.78322 2.54487 9.86784C2.62949 9.95246 2.74426 10 2.86394 10H4.59673C4.65599 10 4.71468 9.98837 4.76944 9.9657C4.82419 9.94304 4.87395 9.9098 4.91585 9.8679C4.95776 9.82599 4.99099 9.77624 5.01366 9.72148C5.03633 9.66672 5.04798 9.60803 5.04796 9.54877V7.81598C5.04796 7.69631 5.00042 7.58153 4.91579 7.49691C4.83117 7.41229 4.7164 7.36475 4.59673 7.36475H3.08628C2.96661 7.36475 2.85184 7.31721 2.76721 7.23259C2.68259 7.14797 2.63505 7.03319 2.63505 6.91352V3.08648C2.63505 2.96681 2.68259 2.85203 2.76721 2.76741C2.85184 2.68279 2.96661 2.63525 3.08628 2.63525H7.01637C7.13604 2.63525 7.25081 2.68279 7.33544 2.76741C7.42006 2.85203 7.4676 2.96681 7.4676 3.08648V3.89323C7.4676 4.0129 7.42006 4.12767 7.33544 4.2123C7.25081 4.29692 7.13604 4.34446 7.01637 4.34446H4.68035C4.56068 4.34446 4.44591 4.392 4.36128 4.47662C4.27666 4.56124 4.22912 4.67601 4.22912 4.79569V5.7364C4.22912 5.79564 4.2408 5.85431 4.26347 5.90904C4.28615 5.96378 4.31939 6.01351 4.3613 6.05539C4.4032 6.09728 4.45294 6.1305 4.50769 6.15315C4.56243 6.17581 4.62111 6.18745 4.68035 6.18743H7.46403C7.58367 6.18743 7.69841 6.13991 7.78303 6.05534C7.86765 5.97076 7.91521 5.85603 7.91526 5.7364V5.35987C7.91526 5.24025 7.96278 5.12553 8.04737 5.04095C8.13195 4.95636 8.24667 4.90884 8.36629 4.90884H9.65162C9.77126 4.90879 9.88598 4.86123 9.97056 4.77661C10.0551 4.69199 10.1027 4.57725 10.1027 4.45761V2.72443C10.1027 2.66518 10.091 2.60651 10.0684 2.55176C10.0457 2.49702 10.0125 2.44727 9.97062 2.40537C9.92873 2.36347 9.879 2.33023 9.82427 2.30755C9.76953 2.28487 9.71087 2.2732 9.65162 2.2732H8.24581C8.12613 2.2732 8.01136 2.22566 7.92674 2.14103C7.84212 2.05641 7.79458 1.94164 7.79458 1.82197Z" fill="white"/>
</svg>
